{
  "accessors": [
    {
      "bufferView": 2,
      "componentType": 5126,
      "count": 4,
      "max": [
        15.0,
        15.0,
        -0.2734929919242859
      ],
      "min": [
        -15.0,
        -15.0,
        -0.2734929919242859
      ],
      "type": "VEC3"
    },
    {
      "bufferView": 2,
      "byteOffset": 48,
      "componentType": 5126,
      "count": 4,
      "max": [
        0.0,
        -0.0,
        1.0
      ],
      "min": [
        0.0,
        -0.0,
        1.0
      ],
      "type": "VEC3"
    },
    {
      "bufferView": 1,
      "componentType": 5126,
      "count": 4,
      "max": [
        1.0,
        1.0
      ],
      "min": [
        0.0,
        0.0
      ],
      "type": "VEC2"
    },
    {
      "bufferView": 0,
      "componentType": 5125,
      "count": 6,
      "type": "SCALAR"
    },
    {
      "bufferView": 2,
      "byteOffset": 96,
      "componentType": 5126,
      "count": 8455,
      "max": [
        6.972321033477783,
        6.9699602127075195,
        24.832073211669922
      ],
      "min": [
        -8.1738862991333,
        -7.070466995239258,
        -0.18007199466228485
      ],
      "type": "VEC3"
    },
    {
      "bufferView": 2,
      "byteOffset": 101556,
      "componentType": 5126,
      "count": 8455,
      "max": [
        1.0,
        1.0,
        1.0
      ],
      "min": [
        -1.0,
        -1.0,
        -1.0
      ],
      "type": "VEC3"
    },
    {
      "bufferView": 1,
      "byteOffset": 32,
      "componentType": 5126,
      "count": 8455,
      "max": [
        0.9924970269203186,
        0.989001989364624
      ],
      "min": [
        0.013209999538958073,
        0.016735000535845757
      ],
      "type": "VEC2"
    },
    {
      "bufferView": 0,
      "byteOffset": 24,
      "componentType": 5125,
      "count": 43566,
      "type": "SCALAR"
    },
    {
      "bufferView": 2,
      "byteOffset": 203016,
      "componentType": 5126,
      "count": 9697,
      "max": [
        12.791820526123047,
        6.9699602127075195,
        22.45526885986328
      ],
      "min": [
        -6.972321033477783,
        -10.745935440063477,
        -0.0920260027050972
      ],
      "type": "VEC3"
    },
    {
      "bufferView": 2,
      "byteOffset": 319380,
      "componentType": 5126,
      "count": 9697,
      "max": [
        0.9999979734420776,
        0.9999325275421143,
        1.0
      ],
      "min": [
        -0.9999983310699463,
        -0.9999376535415649,
        -1.0
      ],
      "type": "VEC3"
    },
    {
      "bufferView": 1,
      "byteOffset": 67672,
      "componentType": 5126,
      "count": 9697,
      "max": [
        0.7067300081253052,
        0.9956740140914917
      ],
      "min": [
        0.008457999676465988,
        0.006777999922633171
      ],
      "type": "VEC2"
    },
    {
      "bufferView": 0,
      "byteOffset": 174288,
      "componentType": 5125,
      "count": 52584,
      "type": "SCALAR"
    },
    {
      "bufferView": 2,
      "byteOffset": 435744,
      "componentType": 5126,
      "count": 8493,
      "max": [
        12.86142635345459,
        8.255600929260254,
        25.10016632080078
      ],
      "min": [
        -8.432832717895508,
        -8.444809913635254,
        -0.2732749879360199
      ],
      "type": "VEC3"
    },
    {
      "bufferView": 2,
      "byteOffset": 537660,
      "componentType": 5126,
      "count": 8493,
      "max": [
        1.0,
        1.0,
        1.0
      ],
      "min": [
        -1.0,
        -1.0,
        -1.0
      ],
      "type": "VEC3"
    },
    {
      "bufferView": 1,
      "byteOffset": 145248,
      "componentType": 5126,
      "count": 8493,
      "max": [
        1.8652089834213257,
        2.7173829078674316
      ],
      "min": [
        0.013209999538958073,
        0.016735000535845757
      ],
      "type": "VEC2"
    },
    {
      "bufferView": 0,
      "byteOffset": 384624,
      "componentType": 5125,
      "count": 43566,
      "type": "SCALAR"
    },
    {
      "bufferView": 2,
      "byteOffset": 639576,
      "componentType": 5126,
      "count": 9697,
      "max": [
        10.296246528625488,
        7.206833839416504,
        22.720041275024414
      ],
      "min": [
        -7.208887100219727,
        -10.818408966064453,
        -0.21189400553703308
      ],
      "type": "VEC3"
    },
    {
      "bufferView": 2,
      "byteOffset": 755940,
      "componentType": 5126,
      "count": 9697,
      "max": [
        0.9999784827232361,
        0.9999377727508545,
        0.9999939799308777
      ],
      "min": [
        -0.999950647354126,
        -0.9999416470527649,
        -0.9999940991401672
      ],
      "type": "VEC3"
    },
    {
      "bufferView": 1,
      "byteOffset": 213192,
      "componentType": 5126,
      "count": 9697,
      "max": [
        0.7067300081253052,
        0.9956740140914917
      ],
      "min": [
        0.008457999676465988,
        0.006777999922633171
      ],
      "type": "VEC2"
    },
    {
      "bufferView": 0,
      "byteOffset": 558888,
      "componentType": 5125,
      "count": 52584,
      "type": "SCALAR"
    },
    {
      "bufferView": 2,
      "byteOffset": 872304,
      "componentType": 5126,
      "count": 3010,
      "max": [
        11.157573699951172,
        10.33893871307373,
        23.524789810180664
      ],
      "min": [
        -16.658302307128906,
        -1.0792720317840576,
        1.6202880144119263
      ],
      "type": "VEC3"
    },
    {
      "bufferView": 2,
      "byteOffset": 908424,
      "componentType": 5126,
      "count": 3010,
      "max": [
        0.9996795058250427,
        0.9999508857727051,
        0.999723494052887
      ],
      "min": [
        -0.999857485294342,
        -0.9999773502349854,
        -0.9998019933700562
      ],
      "type": "VEC3"
    },
    {
      "bufferView": 1,
      "byteOffset": 290768,
      "componentType": 5126,
      "count": 3010,
      "max": [
        0.11559099704027176,
        0.7764279842376709
      ],
      "min": [
        0.034584999084472656,
        0.6977130174636841
      ],
      "type": "VEC2"
    },
    {
      "bufferView": 0,
      "byteOffset": 769224,
      "componentType": 5125,
      "count": 16800,
      "type": "SCALAR"
    },
    {
      "bufferView": 2,
      "byteOffset": 944544,
      "componentType": 5126,
      "count": 842,
      "max": [
        8.16755485534668,
        7.9900031089782715,
        22.368873596191406
      ],
      "min": [
        -8.167556762695313,
        -7.990001201629639,
        6.921542167663574
      ],
      "type": "VEC3"
    },
    {
      "bufferView": 2,
      "byteOffset": 954648,
      "componentType": 5126,
      "count": 842,
      "max": [
        1.0,
        1.0,
        1.0
      ],
      "min": [
        -1.0,
        -1.0,
        -1.0
      ],
      "type": "VEC3"
    },
    {
      "bufferView": 1,
      "byteOffset": 314848,
      "componentType": 5126,
      "count": 842,
      "max": [
        1.8652089834213257,
        2.7173829078674316
      ],
      "min": [
        0.44634199142456055,
        1.9641809463500977
      ],
      "type": "VEC2"
    },
    {
      "bufferView": 0,
      "byteOffset": 836424,
      "componentType": 5125,
      "count": 4560,
      "type": "SCALAR"
    },
    {
      "bufferView": 2,
      "byteOffset": 964752,
      "componentType": 5126,
      "count": 3010,
      "max": [
        11.276466369628906,
        10.458791732788086,
        23.632143020629883
      ],
      "min": [
        -16.76377296447754,
        -1.194262981414795,
        1.5061789751052856
      ],
      "type": "VEC3"
    },
    {
      "bufferView": 2,
      "byteOffset": 1000872,
      "componentType": 5126,
      "count": 3010,
      "max": [
        0.9999537467956543,
        0.9999364614486694,
        0.9996951222419739
      ],
      "min": [
        -0.999950110912323,
        -0.9998332262039185,
        -0.9996717572212219
      ],
      "type": "VEC3"
    },
    {
      "bufferView": 1,
      "byteOffset": 321584,
      "componentType": 5126,
      "count": 3010,
      "max": [
        0.11559099704027176,
        0.7764279842376709
      ],
      "min": [
        0.034584999084472656,
        0.6977130174636841
      ],
      "type": "VEC2"
    },
    {
      "bufferView": 0,
      "byteOffset": 854664,
      "componentType": 5125,
      "count": 16800,
      "type": "SCALAR"
    }
  ],
  "asset": {
    "extras": {
      "author": "MariaDiazLabella (https://sketchfab.com/Blayder23)",
      "license": "CC-BY-4.0 (http://creativecommons.org/licenses/by/4.0/)",
      "source": "https://sketchfab.com/3d-models/kawaii-gumball-machine-36099c4d40a74ca996850a9498a164a6",
      "title": "Kawaii Gumball Machine"
    },
    "generator": "Sketchfab-11.3.0",
    "version": "2.0"
  },
  "bufferViews": [
    {
      "buffer": 0,
      "byteLength": 921864,
      "name": "floatBufferViews",
      "target": 34963
    },
    {
      "buffer": 0,
      "byteLength": 345664,
      "byteOffset": 921864,
      "byteStride": 8,
      "name": "floatBufferViews",
      "target": 34962
    },
    {
      "buffer": 0,
      "byteLength": 1036992,
      "byteOffset": 1267528,
      "byteStride": 12,
      "name": "floatBufferViews",
      "target": 34962
    }
  ],
  "buffers": [
    {
      "byteLength": 2304520,
      "uri": "scene.bin"
    }
  ],
  "extensionsUsed": [
    "KHR_materials_unlit"
  ],
  "images": [
    {
      "uri": "textures/initialShadingGroup_emissive.jpeg"
    },
    {
      "uri": "textures/lambert2SG_baseColor.png"
    }
  ],
  "materials": [
    {
      "doubleSided": true,
      "emissiveFactor": [
        1.0,
        1.0,
        1.0
      ],
      "emissiveTexture": {
        "index": 0
      },
      "extensions": {
        "KHR_materials_unlit": {}
      },
      "name": "initialShadingGroup",
      "pbrMetallicRoughness": {
        "baseColorFactor": [
          0.0,
          0.0,
          0.0,
          1.0
        ],
        "metallicFactor": 0.0
      }
    },
    {
      "alphaMode": "BLEND",
      "doubleSided": true,
      "extensions": {
        "KHR_materials_unlit": {}
      },
      "name": "lambert2SG",
      "pbrMetallicRoughness": {
        "baseColorTexture": {
          "index": 1
        },
        "metallicFactor": 0.0
      }
    },
    {
      "extensions": {
        "KHR_materials_unlit": {}
      },
      "name": "lambert3SG",
      "pbrMetallicRoughness": {
        "baseColorFactor": [
          0.2482802702,
          0.10659520490000003,
          0.1969622642,
          1.0
        ],
        "metallicFactor": 0.0
      }
    },
    {
      "doubleSided": true,
      "emissiveFactor": [
        0.9899763469758787,
        0.9899763469758787,
        0.9899763469758787
      ],
      "emissiveTexture": {
        "index": 0
      },
      "extensions": {
        "KHR_materials_unlit": {}
      },
      "name": "lambert4SG",
      "pbrMetallicRoughness": {
        "baseColorFactor": [
          0.0,
          0.0,
          0.0,
          1.0
        ],
        "metallicFactor": 0.0
      }
    },
    {
      "alphaMode": "BLEND",
      "doubleSided": true,
      "extensions": {
        "KHR_materials_unlit": {}
      },
      "name": "lambert5SG",
      "pbrMetallicRoughness": {
        "baseColorFactor": [
          0.4530459196144188,
          1.0,
          1.0,
          0.16588279288098698
        ],
        "metallicFactor": 0.0
      }
    },
    {
      "extensions": {
        "KHR_materials_unlit": {}
      },
      "name": "lambert7SG",
      "pbrMetallicRoughness": {
        "baseColorFactor": [
          0.7158558931551351,
          0.6834090141481595,
          0.183720401196232,
          1.0
        ],
        "metallicFactor": 0.0
      }
    }
  ],
  "meshes": [
    {
      "name": "Object_0",
      "primitives": [
        {
          "attributes": {
            "NORMAL": 1,
            "POSITION": 0,
            "TEXCOORD_0": 2
          },
          "indices": 3,
          "material": 1,
          "mode": 4
        }
      ]
    },
    {
      "name": "Object_1",
      "primitives": [
        {
          "attributes": {
            "NORMAL": 5,
            "POSITION": 4,
            "TEXCOORD_0": 6
          },
          "indices": 7,
          "material": 0,
          "mode": 4
        }
      ]
    },
    {
      "name": "Object_2",
      "primitives": [
        {
          "attributes": {
            "NORMAL": 9,
            "POSITION": 8,
            "TEXCOORD_0": 10
          },
          "indices": 11,
          "material": 0,
          "mode": 4
        }
      ]
    },
    {
      "name": "Object_3",
      "primitives": [
        {
          "attributes": {
            "NORMAL": 13,
            "POSITION": 12,
            "TEXCOORD_0": 14
          },
          "indices": 15,
          "material": 2,
          "mode": 4
        }
      ]
    },
    {
      "name": "Object_4",
      "primitives": [
        {
          "attributes": {
            "NORMAL": 17,
            "POSITION": 16,
            "TEXCOORD_0": 18
          },
          "indices": 19,
          "material": 2,
          "mode": 4
        }
      ]
    },
    {
      "name": "Object_5",
      "primitives": [
        {
          "attributes": {
            "NORMAL": 21,
            "POSITION": 20,
            "TEXCOORD_0": 22
          },
          "indices": 23,
          "material": 3,
          "mode": 4
        }
      ]
    },
    {
      "name": "Object_6",
      "primitives": [
        {
          "attributes": {
            "NORMAL": 25,
            "POSITION": 24,
            "TEXCOORD_0": 26
          },
          "indices": 27,
          "material": 4,
          "mode": 4
        }
      ]
    },
    {
      "name": "Object_7",
      "primitives": [
        {
          "attributes": {
            "NORMAL": 29,
            "POSITION": 28,
            "TEXCOORD_0": 30
          },
          "indices": 31,
          "material": 5,
          "mode": 4
        }
      ]
    }
  ],
  "nodes": [
    {
      "children": [
        1
      ],
      "matrix": [
        1.0,
        0.0,
        0.0,
        0.0,
        0.0,
        2.220446049250313e-16,
        -1.0,
        0.0,
        0.0,
        1.0,
        2.220446049250313e-16,
        0.0,
        0.0,
        0.0,
        0.0,
        1.0
      ],
      "name": "Sketchfab_model"
    },
    {
      "children": [
        2,
        3,
        4,
        5,
        6,
        7,
        8,
        9
      ],
      "name": "gumball_machine.obj.cleaner.materialmerger.gles"
    },
    {
      "mesh": 0,
      "name": "Object_2"
    },
    {
      "mesh": 1,
      "name": "Object_3"
    },
    {
      "mesh": 2,
      "name": "Object_4"
    },
    {
      "mesh": 3,
      "name": "Object_5"
    },
    {
      "mesh": 4,
      "name": "Object_6"
    },
    {
      "mesh": 5,
      "name": "Object_7"
    },
    {
      "mesh": 6,
      "name": "Object_8"
    },
    {
      "mesh": 7,
      "name": "Object_9"
    }
  ],
  "samplers": [
    {
      "magFilter": 9729,
      "minFilter": 9987,
      "wrapS": 10497,
      "wrapT": 10497
    }
  ],
  "scene": 0,
  "scenes": [
    {
      "name": "Sketchfab_Scene",
      "nodes": [
        0
      ]
    }
  ],
  "textures": [
    {
      "sampler": 0,
      "source": 0
    },
    {
      "sampler": 0,
      "source": 1
    }
  ]
}
