{
    "asset" : {
        "generator" : "Khronos glTF Blender I/O v1.6.16",
        "version" : "2.0"
    },
    "extensionsUsed" : [
        "KHR_materials_unlit"
    ],
    "scene" : 0,
    "scenes" : [
        {
            "name" : "Scene",
            "nodes" : [
                8,
                9,
                10,
                11
            ]
        }
    ],
    "nodes" : [
        {
            "mesh" : 0,
            "name" : "Object_2"
        },
        {
            "mesh" : 1,
            "name" : "Object_3"
        },
        {
            "mesh" : 2,
            "name" : "Object_4"
        },
        {
            "mesh" : 3,
            "name" : "Object_5"
        },
        {
            "mesh" : 4,
            "name" : "Object_6"
        },
        {
            "mesh" : 5,
            "name" : "Object_7"
        },
        {
            "mesh" : 6,
            "name" : "Object_8"
        },
        {
            "mesh" : 7,
            "name" : "Object_9"
        },
        {
            "children" : [
                0,
                1,
                2,
                3,
                4,
                5,
                6,
                7
            ],
            "name" : "Kawaii Gumball Machine",
            "rotation" : [
                -0.7071068286895752,
                0,
                0,
                0.7071067094802856
            ]
        },
        {
            "mesh" : 8,
            "name" : "Cube"
        },
        {
            "name" : "Light",
            "rotation" : [
                0.16907575726509094,
                0.7558803558349609,
                -0.27217137813568115,
                0.570947527885437
            ],
            "translation" : [
                4.076245307922363,
                5.903861999511719,
                -1.0054539442062378
            ]
        },
        {
            "name" : "Camera",
            "rotation" : [
                0.483536034822464,
                0.33687159419059753,
                -0.20870360732078552,
                0.7804827094078064
            ],
            "translation" : [
                7.358891487121582,
                4.958309173583984,
                6.925790786743164
            ]
        }
    ],
    "materials" : [
        {
            "alphaMode" : "BLEND",
            "doubleSided" : true,
            "extensions" : {
                "KHR_materials_unlit" : {}
            },
            "name" : "lambert2SG",
            "pbrMetallicRoughness" : {
                "baseColorTexture" : {
                    "index" : 0
                },
                "metallicFactor" : 0,
                "roughnessFactor" : 0.9
            }
        },
        {
            "doubleSided" : true,
            "extensions" : {
                "KHR_materials_unlit" : {}
            },
            "name" : "initialShadingGroup",
            "pbrMetallicRoughness" : {
                "baseColorTexture" : {
                    "index" : 1
                },
                "metallicFactor" : 0,
                "roughnessFactor" : 0.9
            }
        },
        {
            "extensions" : {
                "KHR_materials_unlit" : {}
            },
            "name" : "lambert3SG",
            "pbrMetallicRoughness" : {
                "baseColorFactor" : [
                    0.24828027188777924,
                    0.10659520328044891,
                    0.19696226716041565,
                    1
                ],
                "metallicFactor" : 0,
                "roughnessFactor" : 0.9
            }
        },
        {
            "doubleSided" : true,
            "extensions" : {
                "KHR_materials_unlit" : {}
            },
            "name" : "lambert4SG",
            "pbrMetallicRoughness" : {
                "baseColorTexture" : {
                    "index" : 2
                },
                "metallicFactor" : 0,
                "roughnessFactor" : 0.9
            }
        },
        {
            "alphaMode" : "BLEND",
            "doubleSided" : true,
            "extensions" : {
                "KHR_materials_unlit" : {}
            },
            "name" : "lambert5SG",
            "pbrMetallicRoughness" : {
                "baseColorFactor" : [
                    0.45304593443870544,
                    1,
                    1,
                    0.16588279604911804
                ],
                "metallicFactor" : 0,
                "roughnessFactor" : 0.9
            }
        },
        {
            "extensions" : {
                "KHR_materials_unlit" : {}
            },
            "name" : "lambert7SG",
            "pbrMetallicRoughness" : {
                "baseColorTexture" : {
                    "index" : 3
                },
                "metallicFactor" : 0,
                "roughnessFactor" : 0.9
            }
        },
        {
            "doubleSided" : true,
            "name" : "Material",
            "pbrMetallicRoughness" : {
                "baseColorFactor" : [
                    0.800000011920929,
                    0.800000011920929,
                    0.800000011920929,
                    1
                ],
                "metallicFactor" : 0,
                "roughnessFactor" : 0.4000000059604645
            }
        }
    ],
    "meshes" : [
        {
            "name" : "Object_0",
            "primitives" : [
                {
                    "attributes" : {
                        "POSITION" : 0,
                        "NORMAL" : 1,
                        "TEXCOORD_0" : 2
                    },
                    "indices" : 3,
                    "material" : 0
                }
            ]
        },
        {
            "name" : "Object_1",
            "primitives" : [
                {
                    "attributes" : {
                        "POSITION" : 4,
                        "NORMAL" : 5,
                        "TEXCOORD_0" : 6
                    },
                    "indices" : 7,
                    "material" : 1
                }
            ]
        },
        {
            "name" : "Object_2",
            "primitives" : [
                {
                    "attributes" : {
                        "POSITION" : 8,
                        "NORMAL" : 9,
                        "TEXCOORD_0" : 10
                    },
                    "indices" : 11,
                    "material" : 1
                }
            ]
        },
        {
            "name" : "Object_3",
            "primitives" : [
                {
                    "attributes" : {
                        "POSITION" : 12,
                        "NORMAL" : 13,
                        "TEXCOORD_0" : 14
                    },
                    "indices" : 15,
                    "material" : 2
                }
            ]
        },
        {
            "name" : "Object_4",
            "primitives" : [
                {
                    "attributes" : {
                        "POSITION" : 16,
                        "NORMAL" : 17,
                        "TEXCOORD_0" : 18
                    },
                    "indices" : 19,
                    "material" : 2
                }
            ]
        },
        {
            "name" : "Object_5",
            "primitives" : [
                {
                    "attributes" : {
                        "POSITION" : 20,
                        "NORMAL" : 21,
                        "TEXCOORD_0" : 22
                    },
                    "indices" : 23,
                    "material" : 3
                }
            ]
        },
        {
            "name" : "Object_6",
            "primitives" : [
                {
                    "attributes" : {
                        "POSITION" : 24,
                        "NORMAL" : 25,
                        "TEXCOORD_0" : 26
                    },
                    "indices" : 27,
                    "material" : 4
                }
            ]
        },
        {
            "name" : "Object_7",
            "primitives" : [
                {
                    "attributes" : {
                        "POSITION" : 28,
                        "NORMAL" : 29,
                        "TEXCOORD_0" : 30
                    },
                    "indices" : 31,
                    "material" : 5
                }
            ]
        },
        {
            "name" : "Cube",
            "primitives" : [
                {
                    "attributes" : {
                        "POSITION" : 32,
                        "NORMAL" : 33,
                        "TEXCOORD_0" : 34
                    },
                    "indices" : 35,
                    "material" : 6
                }
            ]
        }
    ],
    "textures" : [
        {
            "sampler" : 0,
            "source" : 0
        },
        {
            "sampler" : 0,
            "source" : 1
        },
        {
            "sampler" : 0,
            "source" : 1
        },
        {
            "sampler" : 0,
            "source" : 1
        }
    ],
    "images" : [
        {
            "mimeType" : "image/png",
            "name" : "lambert2SG_baseColor",
            "uri" : "lambert2SG_baseColor.png"
        },
        {
            "mimeType" : "image/jpeg",
            "name" : "initialShadingGroup_emissive",
            "uri" : "initialShadingGroup_emissive.jpg"
        }
    ],
    "accessors" : [
        {
            "bufferView" : 0,
            "componentType" : 5126,
            "count" : 4,
            "max" : [
                15,
                15,
                -0.2734929919242859
            ],
            "min" : [
                -15,
                -15,
                -0.2734929919242859
            ],
            "type" : "VEC3"
        },
        {
            "bufferView" : 1,
            "componentType" : 5126,
            "count" : 4,
            "type" : "VEC3"
        },
        {
            "bufferView" : 2,
            "componentType" : 5126,
            "count" : 4,
            "type" : "VEC2"
        },
        {
            "bufferView" : 3,
            "componentType" : 5123,
            "count" : 6,
            "type" : "SCALAR"
        },
        {
            "bufferView" : 4,
            "componentType" : 5126,
            "count" : 8614,
            "max" : [
                6.972321033477783,
                6.9699602127075195,
                24.832073211669922
            ],
            "min" : [
                -8.1738862991333,
                -7.070466995239258,
                -0.18007199466228485
            ],
            "type" : "VEC3"
        },
        {
            "bufferView" : 5,
            "componentType" : 5126,
            "count" : 8614,
            "type" : "VEC3"
        },
        {
            "bufferView" : 6,
            "componentType" : 5126,
            "count" : 8614,
            "type" : "VEC2"
        },
        {
            "bufferView" : 7,
            "componentType" : 5123,
            "count" : 43566,
            "type" : "SCALAR"
        },
        {
            "bufferView" : 8,
            "componentType" : 5126,
            "count" : 9697,
            "max" : [
                12.791820526123047,
                6.9699602127075195,
                22.45526885986328
            ],
            "min" : [
                -6.972321033477783,
                -10.745935440063477,
                -0.0920260027050972
            ],
            "type" : "VEC3"
        },
        {
            "bufferView" : 9,
            "componentType" : 5126,
            "count" : 9697,
            "type" : "VEC3"
        },
        {
            "bufferView" : 10,
            "componentType" : 5126,
            "count" : 9697,
            "type" : "VEC2"
        },
        {
            "bufferView" : 11,
            "componentType" : 5123,
            "count" : 52584,
            "type" : "SCALAR"
        },
        {
            "bufferView" : 12,
            "componentType" : 5126,
            "count" : 8493,
            "max" : [
                12.86142635345459,
                8.255600929260254,
                25.10016632080078
            ],
            "min" : [
                -8.432832717895508,
                -8.444809913635254,
                -0.2732749879360199
            ],
            "type" : "VEC3"
        },
        {
            "bufferView" : 13,
            "componentType" : 5126,
            "count" : 8493,
            "type" : "VEC3"
        },
        {
            "bufferView" : 14,
            "componentType" : 5126,
            "count" : 8493,
            "type" : "VEC2"
        },
        {
            "bufferView" : 15,
            "componentType" : 5123,
            "count" : 43566,
            "type" : "SCALAR"
        },
        {
            "bufferView" : 16,
            "componentType" : 5126,
            "count" : 9697,
            "max" : [
                10.296246528625488,
                7.206833839416504,
                22.720041275024414
            ],
            "min" : [
                -7.208887100219727,
                -10.818408966064453,
                -0.21189400553703308
            ],
            "type" : "VEC3"
        },
        {
            "bufferView" : 17,
            "componentType" : 5126,
            "count" : 9697,
            "type" : "VEC3"
        },
        {
            "bufferView" : 18,
            "componentType" : 5126,
            "count" : 9697,
            "type" : "VEC2"
        },
        {
            "bufferView" : 19,
            "componentType" : 5123,
            "count" : 52584,
            "type" : "SCALAR"
        },
        {
            "bufferView" : 20,
            "componentType" : 5126,
            "count" : 3010,
            "max" : [
                11.157573699951172,
                10.33893871307373,
                23.524789810180664
            ],
            "min" : [
                -16.658302307128906,
                -1.0792720317840576,
                1.6202880144119263
            ],
            "type" : "VEC3"
        },
        {
            "bufferView" : 21,
            "componentType" : 5126,
            "count" : 3010,
            "type" : "VEC3"
        },
        {
            "bufferView" : 22,
            "componentType" : 5126,
            "count" : 3010,
            "type" : "VEC2"
        },
        {
            "bufferView" : 23,
            "componentType" : 5123,
            "count" : 16800,
            "type" : "SCALAR"
        },
        {
            "bufferView" : 24,
            "componentType" : 5126,
            "count" : 842,
            "max" : [
                8.16755485534668,
                7.9900031089782715,
                22.368873596191406
            ],
            "min" : [
                -8.167556762695312,
                -7.990001201629639,
                6.921542167663574
            ],
            "type" : "VEC3"
        },
        {
            "bufferView" : 25,
            "componentType" : 5126,
            "count" : 842,
            "type" : "VEC3"
        },
        {
            "bufferView" : 26,
            "componentType" : 5126,
            "count" : 842,
            "type" : "VEC2"
        },
        {
            "bufferView" : 27,
            "componentType" : 5123,
            "count" : 4560,
            "type" : "SCALAR"
        },
        {
            "bufferView" : 28,
            "componentType" : 5126,
            "count" : 3010,
            "max" : [
                11.276466369628906,
                10.458791732788086,
                23.632143020629883
            ],
            "min" : [
                -16.76377296447754,
                -1.194262981414795,
                1.5061789751052856
            ],
            "type" : "VEC3"
        },
        {
            "bufferView" : 29,
            "componentType" : 5126,
            "count" : 3010,
            "type" : "VEC3"
        },
        {
            "bufferView" : 30,
            "componentType" : 5126,
            "count" : 3010,
            "type" : "VEC2"
        },
        {
            "bufferView" : 31,
            "componentType" : 5123,
            "count" : 16800,
            "type" : "SCALAR"
        },
        {
            "bufferView" : 32,
            "componentType" : 5126,
            "count" : 24,
            "max" : [
                1,
                1,
                1
            ],
            "min" : [
                -1,
                -1,
                -1
            ],
            "type" : "VEC3"
        },
        {
            "bufferView" : 33,
            "componentType" : 5126,
            "count" : 24,
            "type" : "VEC3"
        },
        {
            "bufferView" : 34,
            "componentType" : 5126,
            "count" : 24,
            "type" : "VEC2"
        },
        {
            "bufferView" : 35,
            "componentType" : 5123,
            "count" : 36,
            "type" : "SCALAR"
        }
    ],
    "bufferViews" : [
        {
            "buffer" : 0,
            "byteLength" : 48,
            "byteOffset" : 0
        },
        {
            "buffer" : 0,
            "byteLength" : 48,
            "byteOffset" : 48
        },
        {
            "buffer" : 0,
            "byteLength" : 32,
            "byteOffset" : 96
        },
        {
            "buffer" : 0,
            "byteLength" : 12,
            "byteOffset" : 128
        },
        {
            "buffer" : 0,
            "byteLength" : 103368,
            "byteOffset" : 140
        },
        {
            "buffer" : 0,
            "byteLength" : 103368,
            "byteOffset" : 103508
        },
        {
            "buffer" : 0,
            "byteLength" : 68912,
            "byteOffset" : 206876
        },
        {
            "buffer" : 0,
            "byteLength" : 87132,
            "byteOffset" : 275788
        },
        {
            "buffer" : 0,
            "byteLength" : 116364,
            "byteOffset" : 362920
        },
        {
            "buffer" : 0,
            "byteLength" : 116364,
            "byteOffset" : 479284
        },
        {
            "buffer" : 0,
            "byteLength" : 77576,
            "byteOffset" : 595648
        },
        {
            "buffer" : 0,
            "byteLength" : 105168,
            "byteOffset" : 673224
        },
        {
            "buffer" : 0,
            "byteLength" : 101916,
            "byteOffset" : 778392
        },
        {
            "buffer" : 0,
            "byteLength" : 101916,
            "byteOffset" : 880308
        },
        {
            "buffer" : 0,
            "byteLength" : 67944,
            "byteOffset" : 982224
        },
        {
            "buffer" : 0,
            "byteLength" : 87132,
            "byteOffset" : 1050168
        },
        {
            "buffer" : 0,
            "byteLength" : 116364,
            "byteOffset" : 1137300
        },
        {
            "buffer" : 0,
            "byteLength" : 116364,
            "byteOffset" : 1253664
        },
        {
            "buffer" : 0,
            "byteLength" : 77576,
            "byteOffset" : 1370028
        },
        {
            "buffer" : 0,
            "byteLength" : 105168,
            "byteOffset" : 1447604
        },
        {
            "buffer" : 0,
            "byteLength" : 36120,
            "byteOffset" : 1552772
        },
        {
            "buffer" : 0,
            "byteLength" : 36120,
            "byteOffset" : 1588892
        },
        {
            "buffer" : 0,
            "byteLength" : 24080,
            "byteOffset" : 1625012
        },
        {
            "buffer" : 0,
            "byteLength" : 33600,
            "byteOffset" : 1649092
        },
        {
            "buffer" : 0,
            "byteLength" : 10104,
            "byteOffset" : 1682692
        },
        {
            "buffer" : 0,
            "byteLength" : 10104,
            "byteOffset" : 1692796
        },
        {
            "buffer" : 0,
            "byteLength" : 6736,
            "byteOffset" : 1702900
        },
        {
            "buffer" : 0,
            "byteLength" : 9120,
            "byteOffset" : 1709636
        },
        {
            "buffer" : 0,
            "byteLength" : 36120,
            "byteOffset" : 1718756
        },
        {
            "buffer" : 0,
            "byteLength" : 36120,
            "byteOffset" : 1754876
        },
        {
            "buffer" : 0,
            "byteLength" : 24080,
            "byteOffset" : 1790996
        },
        {
            "buffer" : 0,
            "byteLength" : 33600,
            "byteOffset" : 1815076
        },
        {
            "buffer" : 0,
            "byteLength" : 288,
            "byteOffset" : 1848676
        },
        {
            "buffer" : 0,
            "byteLength" : 288,
            "byteOffset" : 1848964
        },
        {
            "buffer" : 0,
            "byteLength" : 192,
            "byteOffset" : 1849252
        },
        {
            "buffer" : 0,
            "byteLength" : 72,
            "byteOffset" : 1849444
        }
    ],
    "samplers" : [
        {
            "magFilter" : 9729,
            "minFilter" : 9987
        }
    ],
    "buffers" : [
        {
            "byteLength" : 1849516,
            "uri" : "untitled.bin"
        }
    ]
}
